<?xml version="1.0" encoding="UTF-8"?>
<!DOCTYPE svg PUBLIC "-//W3C//DTD SVG 1.1//EN" "http://www.w3.org/Graphics/SVG/1.1/DTD/svg11.dtd">
<!-- Creator: CorelDRAW -->
<svg xmlns="http://www.w3.org/2000/svg" xml:space="preserve" width="7.62mm" height="7.4005mm" version="1.1" style="shape-rendering:geometricPrecision; text-rendering:geometricPrecision; image-rendering:optimizeQuality; fill-rule:evenodd; clip-rule:evenodd"
viewBox="0 0 56.87 55.23"
 xmlns:xlink="http://www.w3.org/1999/xlink"
 xmlns:xodm="http://www.corel.com/coreldraw/odm/2003">
 <defs>
  <style type="text/css">
   <![CDATA[
    .fil0 {fill:#FEFEFE}
    .fil2 {fill:#3D8DCC}
    .fil1 {fill:#222222}
   ]]>
  </style>
 </defs>
 <g id="Layer_x0020_1">
  <metadata id="CorelCorpID_0Corel-Layer"/>
  <g id="_1753404590544">
   <path class="fil0" d="M56.87 35c-0.02,-0.02 -0.04,-0.04 -0.06,-0.05 -0.01,0.02 -0.01,0.05 -0.02,0.07 0.03,-0.01 0.05,-0.01 0.08,-0.02z"/>
   <path class="fil1" d="M42.05 51.44c-2.66,0.18 -3.29,0.67 -6.99,0.6 -2.23,-0.04 -4.72,-0.34 -6.71,-0.83 -2.1,-0.51 -3.88,-1.1 -5.66,-1.89 -8.68,-3.86 -15.56,-12.31 -15.12,-22.18 0.2,-4.44 1.6,-8.19 3.68,-11.25 2.28,-3.36 4.21,-5.13 7.66,-7.45 2.8,-1.88 6.89,-3.51 10.84,-4.23 3.28,-0.59 7.05,-0.72 10.46,-0.23 1.01,0.14 2.27,0.52 3.2,0.59 -3.38,-2.67 -9.46,-4.22 -14.01,-4.54 -5.63,-0.39 -11.21,1.33 -15.17,3.57 -13.55,7.68 -18.22,23.95 -10.5,37.76 2.1,3.76 5.56,7.15 9.17,9.45 6.48,4.12 14.63,5.55 22.54,3.42 1.77,-0.48 5.65,-1.84 6.62,-2.81z"/>
   <path class="fil1" d="M40.56 30.99c-0.09,0.13 -0.03,-0.15 -0.03,-0.15 -0.06,-0.33 0.14,-0 0.03,0.15zm-4.8 3.61c-0.27,-1.17 -0.39,-2.83 -0.55,-4.1l-0.44 -4.23c-0.41,-2.38 -2.46,-4.08 -4.42,-4.84 -1.11,-0.44 -2.34,-0.83 -3.48,-1.23 -1.09,-0.38 -2.7,-0.71 -2.74,-1.89 -0.06,-2.29 5.1,-1.89 5.68,0.7l5.94 -1.49c-0.5,-2.01 -2.13,-3.46 -3.62,-4.23 -5.23,-2.7 -14.85,-1.92 -15.4,5.37 -0.57,7.53 9.65,7.09 10.6,9.13 0.95,2.02 -2.41,2.82 -4.91,1.79 -1.36,-0.56 -1.11,-1.08 -1.9,-1.95l-6.55 1.24c0.57,2.4 2.71,4.27 4.76,5.17 3.59,1.58 5.42,1 8.63,1.04l-1.12 6.89 2.68 0.03c0.16,-0 0.28,-0 0.43,-0.03 0.3,-0.06 0.08,0.02 0.24,-0.09 0.17,-0.18 1.05,-5.76 1.21,-6.79 0.18,-1.11 0.01,-1.29 0.94,-1.74l1.08 8.52c0.22,0.18 -0.11,0.02 0.24,0.11l2.42 0.02 4.66 -10.39c0.04,-0.09 0.1,-0.25 0.14,-0.33l0.19 -0.29c-0.05,0.77 -0.41,1.92 -0.55,2.72 -0.28,1.52 -1.39,7.54 -1.35,8.3l4.2 -0.03 2.49 -14.79 -6.11 -0 -3.42 7.44z"/>
   <path class="fil2" d="M14.95 39.42c0.76,1.9 3.63,4.9 5.17,6.05 0.35,0.26 0.67,0.57 1.04,0.83 7.07,5.01 16.58,5.17 23.87,0.45 10.17,-6.57 13.07,-20.6 7.1,-30.61 -9.1,-15.24 -29.37,-13.97 -37.32,-0.08 -0.42,0.74 -0.6,0.75 -0.42,0.99 0.13,-0.26 0.17,-0.34 0.44,-0.62l1.43 -1.5c0.62,-0.58 1.37,-1.21 2.12,-1.75 5.14,-3.73 12.19,-5.01 18.55,-3.1 7.19,2.16 13.58,8.17 14.03,16.95 0.24,4.76 -1.64,8.95 -3.81,11.67 -7.21,9.05 -21.35,10.28 -30.13,2.61 -0.38,-0.33 -0.68,-0.6 -1.04,-0.96 -0.19,-0.19 -0.27,-0.29 -0.45,-0.48l-0.58 -0.46z"/>
  </g>
 </g>
</svg>
