<?xml version="1.0" encoding="UTF-8"?>
<!DOCTYPE svg PUBLIC "-//W3C//DTD SVG 1.1//EN" "http://www.w3.org/Graphics/SVG/1.1/DTD/svg11.dtd">
<!-- Creator: CorelDRAW -->
<svg xmlns="http://www.w3.org/2000/svg" xml:space="preserve" width="30mm" height="8.3773mm" version="1.1" style="shape-rendering:geometricPrecision; text-rendering:geometricPrecision; image-rendering:optimizeQuality; fill-rule:evenodd; clip-rule:evenodd"
viewBox="0 0 3167.39 884.47"
 xmlns:xlink="http://www.w3.org/1999/xlink"
 xmlns:xodm="http://www.corel.com/coreldraw/odm/2003">
 <defs>
  <style type="text/css">
   <![CDATA[
    .fil0 {fill:#FEFEFE}
    .fil2 {fill:#3D8DCC}
    .fil1 {fill:#222222}
    .fil3 {fill:#3D8DCC;fill-rule:nonzero}
   ]]>
  </style>
 </defs>
 <g id="Layer_x0020_1">
  <metadata id="CorelCorpID_0Corel-Layer"/>
  <g id="_1895009913168">
   <path class="fil0" d="M826.11 645.34c-27.1,42.58 -63.09,79.77 -107,108.16 -11.51,7.43 -23.35,14.13 -35.46,20.09 1.48,1.96 2.77,4.11 3.84,6.42 6.16,13.25 3.45,28.09 -6.98,38.42 -21.18,20.94 -83.28,42.25 -113.31,50.35 -123.01,33.14 -254.05,13.28 -361.03,-54.76 -58.6,-37.27 -113.31,-91.46 -147.05,-151.83 -121.48,-217.32 -51.03,-479.74 168.3,-604.03 71.78,-40.68 161.05,-63 243.85,-57.26 72.35,5.03 169.33,29.41 226.37,74.54 12.08,9.55 16.26,25.11 10.56,39.3 -1.26,3.1 -2.9,5.95 -4.87,8.48 53.13,31.08 98.32,76.39 131.58,132.14 18.39,30.82 31.75,64.15 40.05,98.74 28.74,-90.39 170.7,-93.9 230.6,-37.04 0.46,-1.98 0.97,-3.96 1.54,-5.9 0.58,-1.96 1.26,-3.87 2.09,-5.74 1.12,-2.53 2.51,-4.92 4.19,-7.15 4.96,-6.55 12.09,-11.09 19.98,-12.95l1.39 -0.44c1.85,-0.6 3.46,-0.97 5.38,-1.27 4.69,-0.72 9.42,-0.61 14.15,-0.58l51.74 0.41c7.86,0.05 14.88,2.4 20.75,6.87 0.12,-0.08 0.22,-0.16 0.34,-0.23 12.51,-8.94 21.97,-7.18 35.47,-7.01 58.88,0.74 125.58,-8.88 171.42,36.53 7.01,6.95 12.94,14.87 17.89,23.45 4.66,-6.51 9.87,-12.99 15.72,-19.6 6.49,-7.36 13.84,-13.93 21.85,-19.64 21.27,-15.19 46.85,-24.06 72.97,-26.35 25.85,-2.26 52.37,1.94 75.84,12.95 21.2,9.95 37.48,23.84 49.31,40.36l3.11 -18.58c2.57,-15.3 14.65,-26.65 30.3,-28.44 19.38,-2.23 39.55,-0.65 59.05,-0.65 22.41,0 50.09,-4.72 66.02,14.55 3.42,4.15 5.42,7.82 6.65,11.43l2.67 -5.73c5.79,-12.42 17.64,-19.93 31.53,-19.98l93.45 -0.29c7.55,-0.02 14.57,2.31 20.3,6.33 5.46,-3.57 12,-5.65 19.05,-5.71l70.12 -0.64c14.16,-0.13 26.47,8.09 32.01,20.07 5.57,-12.23 17.7,-20.05 31.71,-20.04l54.79 0.05c6.99,0 13.51,2.05 18.97,5.56 5.36,-3.34 11.72,-5.26 18.53,-5.28l70.45 -0.33c10.6,-0.05 19.74,4.06 26.63,11.99 6.87,7.93 9.59,17.46 7.89,27.76l-22.18 133.98 47.07 0.2c10.25,0.04 19.05,3.96 25.86,11.5 6.81,7.55 9.72,16.61 8.56,26.63 -0.02,0.17 -0.04,0.33 -0.05,0.5 0.38,-1.98 0.75,-3.92 1.11,-5.78 2.61,-13.82 5.6,-27.97 7.52,-41.88 0.02,-0.12 0.04,-0.24 0.05,-0.37 -1.24,-3.36 -3.9,-7.9 -5.36,-11.14 -7.72,-17.18 -15.44,-34.35 -22.96,-51.61 -6.47,-14.83 -22.62,-48.99 -24.08,-64.21 -0.96,-9.96 2.06,-18.88 8.89,-26.28 6.83,-7.39 15.56,-11.2 25.72,-11.2l72.55 -0.07c14.34,-0.01 26.58,8 32.13,21.01 2.3,5.42 4.44,11 6.51,16.63 5.06,-7.58 10.11,-15.16 15.28,-22.64 6.68,-9.65 16.88,-14.96 28.74,-14.97l62.37 -0.04c11.08,-0.01 20.6,4.55 27.43,13.13 0.43,0.55 0.86,1.11 1.27,1.68 17.24,-10.34 36.93,-17.19 58.67,-19.61 96.42,-10.75 162.24,57.88 154.24,151.39 -0.22,2.58 -0.49,5.14 -0.79,7.7 48.09,-55.27 92.35,-117.1 129.04,-176.09 29.4,-47.27 52.59,-93.22 77.61,-142.65 12.35,-24.4 23.65,-49.37 34.69,-74.37 7.23,-16.4 25.93,-24.54 43.13,-18.77 17.2,5.76 26.95,23.43 22.53,40.77l-30.33 118.76c-0.22,0.89 -0.44,1.64 -0.74,2.5 -55.84,164.62 -118.84,332.17 -210.01,481.34 -4.65,7.58 -9.38,15.13 -13.79,22.85 -14.25,24.87 -31.48,49.56 -48.04,73.03 -15.6,22.12 -31.68,44.24 -48.47,65.5 -0.13,0.17 -0.23,0.3 -0.36,0.45l-17.1 20.94c-0.39,0.48 -0.74,0.88 -1.15,1.33 -16.88,18.62 -38.79,14.66 -60.76,14.66 -13,0 -25.98,0.23 -38.97,-0.13 -6.9,-0.2 -13.14,-2.15 -18.47,-5.72 -18.04,9.12 -32.44,5.82 -59.39,5.83 -11.04,0 -22.09,0.01 -33.14,0.01 -5.71,0 -11.43,-0.02 -17.15,0.03 -11.44,0.1 -20.73,0.33 -31.62,-4.96 -8.14,-3.96 -14.06,-10.35 -17.09,-18.22 -42.41,19.64 -46.16,23.31 -94.66,23.16l-311.31 -0.95c-2.89,-0.01 -5.35,-0.31 -8.17,-0.98 -2.83,-0.69 -5.62,-1.65 -8.24,-2.89 -12.23,-5.83 -19.54,-17.22 -19.65,-30.58 -0.1,-13.37 7.05,-24.86 19.18,-30.87 12.1,-5.98 48.95,-8.46 63.31,-9.92 15.72,-1.62 32.16,-2.82 47.76,-5.04 89.02,-12.68 176.82,-34.51 260.07,-68.31 35.73,-14.51 70.57,-30.73 104.03,-48.96 -4.08,-0.54 -8.05,-1.45 -11.84,-2.81 -7.34,2.5 -15.07,3.51 -22.84,3.51 -8.15,0 -16.2,-1.01 -23.54,-3.8 -7.68,2.69 -15.81,3.8 -24.01,3.8 -6.31,0 -12.55,-0.72 -18.47,-2.5 -3.32,0.99 -6.85,1.53 -10.52,1.53l-14.92 0c-1.91,0 -3.78,-0.14 -5.6,-0.41 -1.79,0.26 -3.63,0.41 -5.51,0.41l-14.84 0c-1.63,0 -3.22,-0.11 -4.78,-0.31 -1.53,0.2 -3.09,0.31 -4.69,0.31l-14.84 0c-3.37,0 -6.58,-0.43 -9.63,-1.26 -6.04,1.57 -12.28,2.23 -18.55,2.23 -6.16,0 -12.26,-0.58 -18.03,-2.07 -2.84,0.72 -5.83,1.1 -8.9,1.1l-13.86 0c-1.07,0 -2.12,-0.04 -3.16,-0.14 -3.65,0.74 -7.38,1.11 -11.16,1.11 -6.84,0 -13.42,-1.36 -19.33,-4 -3.04,0.88 -6.17,1.5 -9.33,1.92 -4.05,0.54 -8.29,1.11 -12.37,1.11l-20.65 0c-2.65,2.58 -5.54,4.92 -8.67,6.97 -5.82,3.83 -12.28,6.51 -19.1,8.09 -5.67,1.3 -11.49,1.88 -17.3,1.88 -16.02,0 -31.73,-3.91 -42.08,-16.98 -0.07,-0.1 -0.15,-0.18 -0.22,-0.27 -0.21,-0.03 -0.43,-0.06 -0.65,-0.1 -1.79,0.26 -3.63,0.41 -5.51,0.41l-14.84 0c-1.63,0 -3.22,-0.11 -4.77,-0.31 -1.54,0.2 -3.1,0.31 -4.7,0.31l-14.84 0c-1.39,0 -2.78,-0.07 -4.13,-0.22 -4.46,0.75 -8.96,1.19 -13.49,1.19 -5.44,0 -10.75,-0.62 -15.78,-2.11 -2.9,0.75 -5.95,1.14 -9.1,1.14l-14.92 0c-1.91,0 -3.78,-0.14 -5.61,-0.41 -1.79,0.26 -3.63,0.41 -5.51,0.41l-14.83 0c-1.63,0 -3.22,-0.11 -4.78,-0.31 -1.53,0.2 -3.1,0.31 -4.7,0.31l-14.84 0c-3.25,0 -6.37,-0.4 -9.32,-1.18 -2.95,0.77 -6.04,1.18 -9.24,1.18l-14.92 0c-6.75,0 -12.94,-1.72 -18.28,-4.97 -5.33,3.2 -11.58,4.97 -18.29,4.97l-16.55 0c-7.6,0 -14.51,-2.17 -20.26,-6.28 -9.49,7.33 -21.71,9.21 -32.66,5.46 -5.69,1.21 -11.5,1.79 -17.34,1.79 -11.3,0 -22.27,-2.5 -31.26,-8.45 -0.32,0.42 -0.63,0.83 -0.96,1.25 -4.03,5.11 -8.82,9.59 -14.28,13.2 -5.82,3.82 -12.28,6.51 -19.09,8.09 -5.68,1.3 -11.5,1.88 -17.32,1.88 -16.03,0 -31.74,-3.91 -42.09,-16.99 -0.07,-0.1 -0.14,-0.18 -0.21,-0.26 -0.22,-0.03 -0.43,-0.06 -0.65,-0.1 -1.79,0.26 -3.63,0.41 -5.51,0.41l-14.84 0c-1.63,0 -3.22,-0.11 -4.78,-0.31 -1.53,0.2 -3.09,0.31 -4.69,0.31l-14.84 0c-3.36,0 -6.58,-0.43 -9.63,-1.26 -6.03,1.57 -12.28,2.23 -18.55,2.23 -6.24,0 -12.41,-0.59 -18.25,-2.12 -2.91,0.75 -5.97,1.15 -9.12,1.15l-14.84 0c-1.4,0 -2.79,-0.07 -4.13,-0.22 -4.46,0.75 -8.96,1.19 -13.49,1.19 -7.77,0 -15.27,-1.26 -22.09,-4.53 -4.72,2.3 -10.04,3.56 -15.68,3.56l-14.92 0c-3.6,0 -7.05,-0.5 -10.29,-1.45 -6.32,1.7 -12.89,2.42 -19.5,2.42 -8.16,0 -16.19,-1.19 -23.55,-4.35 -4.63,2.22 -9.8,3.38 -15.35,3.38l-13.16 0c-3.57,0 -7.01,-0.54 -10.25,-1.52 -3.3,0.99 -6.82,1.52 -10.46,1.52l-13.89 0c-0.8,0 -1.6,-0.03 -2.4,-0.07 -3.4,0.69 -6.88,1.05 -10.4,1.05 -4.22,0 -8.31,-0.52 -12.19,-1.5 -1.97,0.35 -4,0.53 -6.08,0.53l-17.27 0c-4.28,0 -8.3,-0.68 -12.03,-2.01 -3.75,1.32 -7.78,2.01 -12.04,2.01l-16.84 0c-8.81,0 -16.78,-2.99 -22.95,-8.37l-458.52 0c-11.77,0 -21.9,-5.23 -28.6,-14.74 -0.1,-0.14 -0.2,-0.27 -0.3,-0.42zm1816.93 -19.43l18.13 -11.74c5.27,-3.67 11.14,-6.88 16.15,-10.66 7.27,-5.49 14.55,-11 21.8,-16.54 -33.1,-1.69 -64.74,-14.71 -89.7,-36.48 -29.68,-25.89 -41.62,-65.27 -41.18,-104.52 -2.12,2.85 -4.29,5.68 -6.48,8.49 -1.37,1.76 -3.28,3.96 -4.54,5.88 -1.62,4.82 -2.68,13.77 -3.51,18.66 -4.27,25.16 -7.04,50.96 -13.47,75.69 -0.36,1.37 -0.8,2.71 -1.31,4.01 4.49,-0.81 9.07,-1.15 13.64,-1.15 7.72,0 15.4,0.73 22.63,3.57 0.27,-0.11 0.55,-0.19 0.81,-0.29 7.13,-2.36 14.62,-3.28 22.12,-3.28 7.81,0 15.58,0.74 22.88,3.66 9.24,3.7 16.84,10.19 21.64,18.79 3.98,7.14 5.66,15.03 5.63,23.13 -0.03,6.04 -1.62,11.71 -4.41,16.64 -0.14,2.06 -0.41,4.11 -0.83,6.14zm-239.98 -80.82c0,-0.55 0.01,-1.11 0.03,-1.69 -0.16,0.63 -0.32,1.26 -0.49,1.87 0.15,-0.05 0.31,-0.12 0.45,-0.18zm312.73 -121.46c-0.44,1.69 -0.79,3.15 -1.02,4.23 -0.59,2.76 -1.24,6.45 -1.82,10.59 1.12,-4.85 2.08,-9.89 2.84,-14.82z"/>
   <path class="fil0" d="M874.86 551.35c-0.3,-0.25 -0.6,-0.52 -0.9,-0.78 -0.12,0.35 -0.21,0.7 -0.32,1.06 0.4,-0.1 0.81,-0.18 1.21,-0.27z"/>
   <path class="fil1" d="M655.84 794.27c-39.25,2.72 -48.61,9.95 -103.34,8.93 -32.98,-0.61 -69.77,-5.05 -99.19,-12.23 -31.02,-7.57 -57.31,-16.19 -83.61,-27.87 -128.21,-56.96 -229.93,-181.86 -223.33,-327.7 2.97,-65.54 23.63,-120.93 54.35,-166.22 33.72,-49.7 62.17,-75.76 113.13,-110.02 41.3,-27.8 101.78,-51.9 160.11,-62.44 48.45,-8.76 104.14,-10.6 154.57,-3.35 14.93,2.14 33.56,7.73 47.31,8.76 -49.87,-39.46 -139.69,-62.4 -207.01,-67.06 -83.18,-5.78 -165.63,19.66 -224.04,52.76 -200.16,113.42 -269.2,353.88 -155.18,557.84 31.07,55.58 82.09,105.64 135.44,139.58 95.74,60.89 216.14,81.98 332.97,50.5 26.11,-7.04 83.44,-27.25 97.83,-41.47z"/>
   <path class="fil1" d="M633.85 492.15c-1.3,1.9 -0.46,-2.15 -0.48,-2.2 -0.88,-4.92 1.98,-0.01 0.48,2.2zm-70.96 53.34c-4.02,-17.3 -5.83,-41.75 -8.15,-60.5l-6.44 -62.47c-6.04,-35.15 -36.29,-60.21 -65.23,-71.54 -16.44,-6.44 -34.56,-12.32 -51.37,-18.12 -16.13,-5.56 -39.94,-10.47 -40.44,-27.94 -0.97,-33.79 75.36,-27.93 83.91,10.26l87.78 -22.06c-7.36,-29.64 -31.46,-51.1 -53.47,-62.47 -77.32,-39.95 -219.31,-28.31 -227.51,79.36 -8.47,111.2 142.52,104.75 156.63,134.81 13.99,29.82 -35.57,41.65 -72.47,26.45 -20.1,-8.27 -16.36,-15.95 -28.11,-28.88l-96.76 18.33c8.45,35.39 39.97,63.06 70.32,76.4 53.04,23.31 80.05,14.74 127.46,15.39l-16.6 101.8 39.57 0.41c2.3,-0.03 4.16,-0.06 6.39,-0.5 4.39,-0.87 1.12,0.32 3.58,-1.4 2.56,-2.71 15.46,-85.15 17.9,-100.37 2.63,-16.36 0.2,-19.06 13.92,-25.76l15.93 125.87c3.3,2.71 -1.65,0.32 3.6,1.64l35.81 0.3 68.79 -153.47c0.52,-1.31 1.44,-3.66 2.07,-4.87l2.83 -4.29c-0.7,11.31 -6.01,28.37 -8.17,40.16 -4.14,22.53 -20.52,111.43 -19.94,122.61l62.12 -0.5 36.74 -218.47 -90.22 -0.06 -50.46 109.86z"/>
   <path class="fil2" d="M3060.34 273.43c-3.36,-5.08 -4.22,0.02 -0.6,-9.7l22.92 -50.6c-4.58,18.9 -18.29,41.55 -22.32,60.31zm32.65 -110.88c0.93,-6.41 4.53,-14.74 9.06,-19.8l-9.06 19.8zm-395.38 670.74c12.53,0.35 25.38,0.12 37.96,0.12 14.45,0 29.72,2.39 34.8,-3.21l17.1 -20.94c26.31,-33.32 74.1,-100.17 93.68,-134.35 4.62,-8.08 9.89,-16.49 14.27,-23.67 88.96,-145.53 152.01,-312.95 206.82,-474.54l30.34 -118.76c-10.94,24.76 -22.89,51.16 -35.46,76 -29.41,58.11 -43.75,88.48 -79.08,145.26 -52.85,84.94 -125.35,180.68 -198.17,249.55l-57.93 52.79c-19.64,15.88 -40.98,32.2 -63.44,49.17 -5.26,3.97 -11.47,7.33 -17.63,11.72l-50.48 32.7c-45.86,28.17 -94.83,52.63 -149.07,74.66 -84.77,34.41 -174.96,57.23 -268.36,70.54 -15.28,2.17 -95.33,9.16 -100.44,11.69 0.43,0.2 1.02,0.37 1.36,0.45l311.32 0.95c41.99,0 36.55,0.03 81.48,-20.71 85.75,-39.6 177.94,-102 247.45,-165.02 106.34,-96.44 200.46,-222.12 269.33,-349.38 11.44,-21.16 24.98,-44.84 35.81,-67.81l31.35 -65.21c1.68,-2.54 1.27,-1.77 2.38,-2.71 -1.53,25.49 -101.04,212.06 -125.97,251.75 -39.09,62.25 -64.6,97.25 -109.95,154.49 -32.32,40.8 -93.53,105.75 -129.11,135.51 -28.46,23.81 -74.4,62.08 -107.09,83.45l-68.63 44.24c4.16,2.02 11.24,1.46 15.9,1.41 5.83,-0.04 11.65,-0.02 17.46,-0.02 11.04,0 22.09,0 33.13,-0.01 37.19,-0.01 37.87,4.66 56.27,-11.16 49.08,-42.21 92.23,-83.88 132.59,-133.94 5.09,-6.31 11.01,-12.8 15.86,-18.67 5.45,-6.59 9.39,-12.2 14.36,-18.51 54.07,-68.56 88.36,-123.35 131.2,-200.33 13.46,-24.19 79.54,-151.69 87.03,-179.43 3.7,5.65 2.64,4.86 -0.37,12 -1.56,3.7 -2.61,5.9 -4.3,9.69 -31.62,70.96 -65.23,147.17 -103.7,214 -65.02,112.95 -131.7,207.33 -222.43,297.62 -5.5,5.47 -26.2,22.94 -27.64,28.62z"/>
   <path class="fil2" d="M255.5 616.55c11.29,28.01 53.69,72.4 76.37,89.34 5.14,3.83 9.85,8.36 15.41,12.3 104.42,74.03 244.96,76.33 352.72,6.67 150.25,-97.13 193.16,-304.27 104.9,-452.17 -134.37,-225.17 -433.88,-206.38 -551.3,-1.17 -6.25,10.93 -8.87,11.11 -6.27,14.63 1.92,-3.92 2.54,-5.09 6.56,-9.19l21.06 -22.16c9.14,-8.52 20.31,-17.9 31.26,-25.84 75.95,-55.09 180.16,-73.98 273.98,-45.76 106.21,31.96 200.7,120.72 207.28,250.42 3.58,70.4 -24.28,132.29 -56.32,172.47 -106.53,133.66 -315.44,151.9 -445.11,38.5 -5.65,-4.94 -10.03,-8.84 -15.33,-14.15 -2.78,-2.79 -3.95,-4.3 -6.63,-7.14l-8.58 -6.79z"/>
   <path class="fil1" d="M1907.19 381.17c-3.26,2.9 -0.8,-3.85 -0.79,-3.87 0.49,-7.9 1.68,3.08 0.79,3.87zm-29.53 165.32c73.41,0.08 64,6.04 67.83,-16.83 4.59,-27.35 35.77,-200.63 34.97,-212.33l-93.45 0.29 -53.39 114.6c-5.99,-27.76 -9.19,-69.11 -12.64,-99.17 -2.21,-19.27 5.53,-15.7 -40.94,-15.7 -16.09,0 -39.62,-1.34 -55.02,0.42l-38.3 228.73 52.43 -0.41c5.17,-20.55 21.65,-123.4 25.15,-153.72 0.4,-3.53 0.64,-7.76 1.1,-10.79 1.78,-12.14 3.72,-8.55 3.73,-8.55 0.3,34.28 6.92,72.83 11.01,107.02 2.08,17.39 4.47,34.92 6.23,52.05 1.55,15.01 -6.47,16.64 43.79,14.21l56.64 -124.28c2.78,-6.27 15.26,-38.05 18.78,-41.52 0.53,9.47 -12.1,67.77 -14.78,83.19 -3.2,18.38 -13.94,67.5 -13.14,82.82z"/>
   <path class="fil1" d="M1287.12 494.77l20.73 -127.19c24.16,-1.02 40.5,-0.99 50.49,14.37 15.92,24.49 8.43,82.44 -15.08,102.4 -13.32,11.33 -35.23,10.78 -56.14,10.42zm-78.88 51.63c36.44,0.82 79.08,1.38 114.91,-0.58 69.09,-3.78 109.05,-50.22 113.19,-115.48 2.29,-36 -9.06,-68.8 -27.03,-86.61 -34.43,-34.1 -91.42,-25.72 -147.18,-26.42 -15.83,-0.2 -15.73,-3.16 -17.86,11.38 -3.85,26.28 -36.32,205.69 -36.03,217.7z"/>
   <path class="fil1" d="M1567.61 366.23c16.57,-4.28 29.04,5.05 34.01,16.4 5.78,13.19 1.94,33 -0.4,46.56 -4.86,28.16 -10.66,61.95 -34.96,68.42 -41.31,10.98 -40.8,-33 -35.66,-63.8 4.87,-29.17 11.39,-60.96 37.02,-67.57zm107.88 74.33c22.12,-136.04 -123.94,-159.95 -181.63,-94.65 -20.32,23.02 -31.96,43.1 -37.19,76.39 -25.63,163.32 192.7,178.9 218.81,18.27z"/>
   <path class="fil1" d="M2715.54 366.58c17.24,-4.93 29.39,4.11 34.22,15.39 8.35,19.5 -2.89,106.68 -34.61,115.53 -17.54,4.9 -31.3,-3.07 -35.96,-15.17 -7.32,-18.96 -1.06,-105.05 36.35,-115.75zm109.89 60.24c6.17,-72.03 -40.7,-122.85 -115.63,-114.49 -107.49,11.99 -135.1,162.11 -77.29,212.52 67.93,59.25 182.52,23.71 192.93,-98.03z"/>
   <path class="fil1" d="M877.43 485.9c2.52,20.19 22.89,37.23 35.9,45.78 45.91,30.2 147.86,27.3 170.86,-36.28 9.25,-25.57 3.73,-47.63 -10.34,-63.36 -21.24,-23.77 -51.58,-27.21 -82.88,-40.38 -24.83,-10.46 -6.64,-36.98 27.3,-25.11 16.93,5.93 12,9.62 20.8,19.01l57.92 -15.39c-9.89,-68.58 -185.25,-86.56 -192.12,12.06 -5.26,75.42 94.67,72.61 106.54,90.69 7.55,11.5 -2.68,21.07 -13.4,23.31 -25.65,5.35 -47.16,-5.12 -53.43,-23.36l-67.15 13.03z"/>
   <path class="fil1" d="M1994.28 470.1c-11.18,95.08 113.6,94.29 161.63,57.23 14.6,-11.25 22.69,-35.07 27.66,-60.26 3.68,-18.66 24.86,-139.22 24.73,-149.68l-54.8 -0.05c-7.64,26 -12.93,72.2 -17.66,100.84 -6.08,36.76 -5.68,77.86 -38.43,79.63 -20.85,1.12 -34.07,-8.81 -31.65,-29.56 4.1,-35.03 25.39,-129.2 24.4,-150.95l-70.13 0.65 -25.75 152.15z"/>
   <path class="fil1" d="M2506.53 546.18c5.6,-21.52 9.06,-50.4 12.86,-72.82 6.12,-36.2 4.32,-23.77 27.6,-57.1 11.92,-17.07 24.65,-32.24 36.81,-49.57 6.07,-8.64 11.89,-17.43 18.04,-25.14 5.08,-6.37 14.96,-17.33 16.69,-24.21l-62.38 0.05c-4.24,6.13 -47.93,72.11 -52.5,75.69 -7.12,-9.9 -23.28,-59.61 -30.14,-75.73l-72.55 0.07c0.92,9.44 37.45,90.1 44.24,105.18 4.97,11.06 9.8,16.66 7.96,29.98 -3.26,23.66 -15.48,77.56 -15.3,93.9l68.68 -0.32z"/>
   <path class="fil1" d="M2316.45 317.34l-70.46 0.33 -38.2 228.62c41.76,2.09 94.73,-0.01 138.94,0.22 21.12,0.11 21.13,10.95 28.79,-55.23l-87.81 -0.38 28.74 -173.56z"/>
   <path class="fil1" d="M1205.75 317.67l-51.74 -0.39c-2.07,-0.02 -6.67,-0.12 -8.53,0.16l-3.9 1.26c-2.89,-5.25 -39.96,218.97 -39.81,227.82l65.86 -0.3 38.12 -228.55z"/>
   <path class="fil0" d="M1890.94 625.02c0.02,0 -1.31,3.28 5.07,0.25 4.17,-1.97 6.58,-14.41 3.36,-20.67 -12.42,-3.22 -10.13,16.62 -8.43,20.42z"/>
   <polygon class="fil0" points="1837.75,612.36 1846.1,611.76 1843.53,598.86 "/>
   <path class="fil3" d="M1336.48 634.63m41.64 -9.51l-18.71 0 -6.08 9.51 -16.85 0 40.72 -57.73 18.05 0 -0.62 57.73 -17.29 0 0.78 -9.51zm0.96 -12.5l1.57 -20.71 -13.28 20.71 11.71 0zm17.94 22.01m63.18 -57.73l-20.6 57.73 -13.87 0 2.22 -6.21c-2.89,2.65 -5.31,4.42 -7.26,5.32 -2.56,1.29 -5.14,1.85 -7.75,1.85 -5.29,0 -8.54,-2.17 -9.74,-6.52 -1.2,-4.35 -0.76,-9.6 1.46,-15.81 2.47,-6.93 5.94,-12.26 10.33,-15.96 4.35,-3.62 8.88,-5.48 13.66,-5.48 2.31,0 4.24,0.4 5.83,1.21 1.55,0.89 2.83,2.09 3.64,3.79l7.11 -19.92 14.99 0zm-27.9 36.6c1.15,-3.22 1.37,-5.72 0.68,-7.34 -0.69,-1.62 -2.04,-2.42 -4.05,-2.42 -1.71,0 -3.41,0.8 -5.16,2.34 -1.66,1.53 -3.18,4.11 -4.5,7.81 -1.21,3.39 -1.51,5.89 -0.89,7.51 0.61,1.6 1.83,2.41 3.61,2.41 1.86,0 3.72,-0.8 5.55,-2.41 1.85,-1.62 3.44,-4.2 4.76,-7.91zm11.93 21.13m14.93 -41.85l15.44 0 -1.94 26.53 17.22 -26.53 14.92 0 -31.34 41.85 -13.12 0 -1.17 -41.85z"/>
   <path class="fil3" d="M1490.37 634.63m50.85 -16.93l-29.75 0c-0.61,2.58 -0.71,4.52 -0.1,5.72 0.75,1.86 2.3,2.75 4.61,2.75 1.49,0 3.05,-0.4 4.6,-1.2 0.99,-0.5 2.21,-1.37 3.53,-2.59l14.09 1.45c-3.73,4.19 -7.48,7.18 -11.27,9.03 -3.87,1.86 -8.73,2.75 -14.63,2.75 -5.14,0 -8.88,-0.8 -11.23,-2.33 -2.33,-1.62 -3.94,-4.03 -4.63,-7.5 -0.73,-3.39 -0.26,-7.42 1.37,-12.01 2.33,-6.54 6.18,-11.86 11.49,-15.88 5.32,-4.03 11.4,-6.05 18.19,-6.05 5.59,0 9.6,0.89 12.14,2.73 2.58,1.77 4.09,4.43 4.49,7.91 0.51,3.39 -0.29,7.9 -2.24,13.38l-0.67 1.86zm-12.33 -7.65c0.82,-3.15 0.86,-5.32 0.08,-6.69 -0.78,-1.37 -2.2,-2.02 -4.2,-2.02 -2.39,0 -4.62,1.05 -6.76,3.06 -1.33,1.2 -2.62,3.15 -3.73,5.65l14.6 0zm13.23 24.59m14.93 -41.85l13.87 0 -2.45 6.86c2.41,-2.99 4.57,-5.09 6.36,-6.12 1.83,-1.14 3.81,-1.7 5.9,-1.7 2.16,0 4.3,0.73 6.39,2.17l-8.71 11.44c-1.43,-0.8 -2.7,-1.2 -3.67,-1.2 -1.93,0 -3.82,0.89 -5.46,2.58 -2.46,2.5 -4.81,7.01 -7.23,13.79l-5.02 14.03 -14.91 0 14.93 -41.85z"/>
   <path class="fil3" d="M1576.39 634.63m40.88 -57.73l-5.66 15.88 8.12 0 -4.19 11.77 -8.13 0 -5.29 14.83c-0.63,1.77 -0.9,2.9 -0.79,3.47 0.2,0.89 0.84,1.36 2.12,1.36 1.05,0 2.71,-0.32 4.92,-1.03l-2.85 11.12c-3.97,0.89 -7.55,1.29 -10.76,1.29 -3.65,0 -6.23,-0.49 -7.58,-1.53 -1.34,-1.05 -2.13,-2.58 -2.21,-4.68 -0.06,-2.09 0.69,-5.48 2.36,-10.16l5.23 -14.68 -5.44 0 4.19 -11.77 5.45 0 2.73 -7.65 17.77 -8.22zm-4.87 57.73m20.6 -57.73l14.84 0 -3.89 10.89 -14.84 0 3.89 -10.89zm-5.67 15.88l14.84 0 -14.93 41.85 -14.84 0 14.93 -41.85zm6.78 41.85m4.14 -11.61l15.2 -1.45c-0.06,1.85 0.34,3.22 1.1,4.03 0.83,0.8 2.1,1.2 3.97,1.2 2.01,0 3.67,-0.49 5.11,-1.37 1.08,-0.72 1.82,-1.53 2.19,-2.58 0.41,-1.13 0.2,-2.02 -0.69,-2.66 -0.65,-0.49 -2.61,-1.05 -5.81,-1.69 -4.8,-0.97 -8.07,-1.87 -9.79,-2.67 -1.65,-0.8 -2.85,-2.26 -3.51,-4.19 -0.7,-2.02 -0.56,-4.28 0.33,-6.77 0.98,-2.73 2.59,-5.16 4.77,-7.09 2.22,-2.02 4.77,-3.55 7.73,-4.52 2.96,-0.96 6.56,-1.45 10.96,-1.45 4.54,0 7.83,0.4 9.73,1.13 1.94,0.8 3.34,1.93 4.25,3.55 0.91,1.62 1.33,3.79 1.32,6.52l-14.54 1.46c0.12,-1.37 -0.14,-2.33 -0.73,-2.99 -0.9,-0.8 -2.17,-1.2 -3.81,-1.2 -1.64,0 -2.95,0.32 -4,0.96 -0.98,0.64 -1.64,1.46 -1.95,2.34 -0.38,1.05 -0.12,1.77 0.58,2.33 0.79,0.49 2.79,0.97 5.85,1.37 4.7,0.64 8.06,1.46 10.11,2.59 2.02,1.05 3.26,2.58 3.81,4.59 0.61,2.02 0.43,4.19 -0.42,6.61 -0.87,2.42 -2.36,4.75 -4.52,7.01 -2.14,2.26 -4.97,4.12 -8.3,5.49 -3.39,1.36 -7.58,2.01 -12.57,2.01 -7.08,0 -11.68,-1.13 -13.95,-3.3 -2.21,-2.17 -3.06,-5.24 -2.44,-9.27zm44.54 11.61m20.6 -57.73l14.83 0 -3.87 10.89 -14.84 0 3.89 -10.89zm-5.67 15.88l14.84 0 -14.94 41.85 -14.83 0 14.93 -41.85zm9.39 41.85m14.93 -41.85l13.79 0 -2.42 6.78c3.07,-2.73 5.88,-4.75 8.39,-5.97 2.6,-1.21 5.33,-1.77 8.39,-1.77 4.1,0 6.77,1.29 8.2,3.95 1.36,2.66 1.05,6.69 -0.94,12.26l-9.49 26.61 -14.92 0 8.22 -23.06c0.92,-2.59 1.14,-4.43 0.65,-5.56 -0.53,-1.06 -1.59,-1.62 -3.16,-1.62 -1.79,0 -3.55,0.73 -5.17,2.17 -1.59,1.54 -3.11,4.12 -4.5,7.98l-7.16 20.08 -14.83 0 14.93 -41.85zm33.01 41.85m43.64 -41.85l13.86 0 -14.09 39.51 -0.59 1.86c-0.92,2.58 -2.32,5.08 -4.23,7.5 -1.88,2.34 -3.91,4.27 -6.14,5.72 -2.26,1.53 -4.79,2.58 -7.72,3.23 -2.84,0.64 -5.93,0.96 -9.36,0.96 -7.75,0 -12.66,-1.29 -14.68,-3.79 -1.94,-2.49 -2.23,-5.88 -0.7,-10.16 0.17,-0.49 0.43,-1.2 0.82,-2.09l13.76 1.77c-0.15,1.45 0.03,2.42 0.64,2.98 0.76,0.8 2.04,1.21 3.67,1.21 2.09,0 3.96,-0.64 5.43,-1.86 1.48,-1.2 2.78,-3.39 3.87,-6.45l2.24 -6.28c-2.08,1.85 -4.05,3.22 -5.76,4.02 -2.8,1.37 -5.48,2.02 -8.17,2.02 -5.14,0 -8.46,-2.42 -9.9,-7.33 -1,-3.47 -0.49,-8.07 1.56,-13.79 2.32,-6.54 5.57,-11.46 9.71,-14.92 4.12,-3.38 8.53,-5.08 13.23,-5.08 2.98,0 5.31,0.56 6.88,1.62 1.53,1.12 2.65,2.99 3.48,5.48l2.19 -6.13zm-21.17 20.24c-1.1,3.07 -1.3,5.32 -0.62,6.78 0.67,1.45 1.98,2.17 3.92,2.17 1.87,0 3.7,-0.73 5.43,-2.26 1.82,-1.53 3.29,-3.79 4.39,-6.85 1.09,-3.06 1.26,-5.4 0.49,-7.01 -0.7,-1.62 -2.05,-2.42 -3.92,-2.42 -1.93,0 -3.68,0.72 -5.35,2.26 -1.64,1.45 -3.11,3.94 -4.33,7.33zm55.07 21.61m52 -28.06l10.55 2.83c-1.4,2.25 -2.66,4.11 -3.71,5.56 -1.08,1.36 -2.41,2.98 -4.14,4.91l4.13 4.12c0.5,0.48 1.12,1.05 2.01,1.69l-11.52 9.91c-1.2,-0.8 -2.34,-1.77 -3.52,-2.9 -1.16,-1.13 -2.26,-2.02 -3.17,-2.82 -3.26,1.86 -6.26,3.15 -9.2,4.03 -3.91,1.13 -8.2,1.69 -12.68,1.69 -7.16,0 -11.88,-1.6 -14.16,-4.84 -2.38,-3.15 -2.68,-7.09 -1.07,-11.6 1.17,-3.32 3.34,-6.45 6.39,-9.35 3.05,-2.9 7.3,-5.41 12.64,-7.42 -1.01,-2.58 -1.58,-4.75 -1.59,-6.61 -0.08,-1.85 0.23,-3.79 0.93,-5.72 1.47,-4.12 4.09,-7.5 7.94,-10.16 3.86,-2.66 8.73,-3.96 14.54,-3.96 6.04,0 9.98,1.3 11.85,3.8 1.94,2.49 2.29,5.48 1.02,9.03 -0.72,2.02 -1.83,3.86 -3.27,5.64 -1.56,1.86 -3.13,3.32 -4.72,4.43 -1.59,1.13 -4.43,2.83 -8.37,5.09 1.6,2.82 3.37,5.4 5.34,7.81 1.32,-1.62 2.62,-3.39 3.78,-5.16zm-13.38 -10.15c2.26,-1.13 4.19,-2.34 5.71,-3.72 1.51,-1.29 2.49,-2.59 2.89,-3.71 0.46,-1.3 0.39,-2.34 -0.14,-3.15 -0.58,-0.89 -1.64,-1.3 -3.2,-1.3 -1.49,0 -2.86,0.5 -4.17,1.46 -1.29,0.89 -2.14,2.02 -2.6,3.3 -0.58,1.62 -0.1,4.03 1.5,7.11zm-10.3 14.02c-2.59,1.6 -4.47,2.9 -5.46,4.03 -1.08,1.12 -1.86,2.26 -2.28,3.46 -0.7,1.93 -0.55,3.63 0.46,5.16 0.94,1.53 2.7,2.26 5.16,2.26 2.61,0 6,-1.14 10.08,-3.39 -2.22,-2.59 -4.86,-6.45 -7.97,-11.53zm62.65 24.19m20.6 -57.73l27.44 0c5.97,0 9.89,1.54 11.77,4.6 1.9,3.05 1.81,7.5 -0.21,13.13 -2.07,5.81 -5.34,10.4 -9.73,13.7 -4.47,3.3 -9.96,4.92 -16.66,4.92l-9.03 0 -7.62 21.37 -16.55 0 20.6 -57.73zm7.75 24.67l4.1 0c3.21,0 5.68,-0.64 7.35,-1.77 1.7,-1.21 2.91,-2.73 3.58,-4.59 0.67,-1.86 0.69,-3.39 -0.04,-4.68 -0.69,-1.21 -2.54,-1.86 -5.68,-1.86l-4.7 0 -4.6 12.9zm24.74 33.06m14.93 -41.85l13.87 0 -2.44 6.86c2.4,-2.99 4.56,-5.09 6.36,-6.12 1.82,-1.14 3.81,-1.7 5.9,-1.7 2.15,0 4.29,0.73 6.38,2.17l-8.71 11.44c-1.43,-0.8 -2.69,-1.2 -3.67,-1.2 -1.93,0 -3.81,0.89 -5.46,2.58 -2.46,2.5 -4.81,7.01 -7.23,13.79l-5 14.03 -14.92 0 14.93 -41.85zm18.55 41.85m20.6 -57.73l14.83 0 -3.89 10.89 -14.83 0 3.89 -10.89zm-5.67 15.88l14.83 0 -14.93 41.85 -14.83 0 14.93 -41.85zm9.38 41.85m14.94 -41.85l13.79 0 -2.42 6.78c3.07,-2.73 5.88,-4.75 8.39,-5.97 2.6,-1.21 5.33,-1.77 8.39,-1.77 4.1,0 6.77,1.29 8.2,3.95 1.36,2.66 1.03,6.69 -0.94,12.26l-9.5 26.61 -14.91 0 8.22 -23.06c0.92,-2.59 1.14,-4.43 0.65,-5.56 -0.53,-1.06 -1.59,-1.62 -3.16,-1.62 -1.79,0 -3.55,0.73 -5.18,2.17 -1.58,1.54 -3.1,4.12 -4.49,7.98l-7.16 20.08 -14.84 0 14.94 -41.85zm32.41 41.85m40.88 -57.73l-5.67 15.88 8.13 0 -4.2 11.77 -8.13 0 -5.29 14.83c-0.63,1.77 -0.89,2.9 -0.79,3.47 0.2,0.89 0.86,1.36 2.12,1.36 1.05,0 2.72,-0.32 4.92,-1.03l-2.85 11.12c-3.97,0.89 -7.55,1.29 -10.75,1.29 -3.65,0 -6.24,-0.49 -7.58,-1.53 -1.34,-1.05 -2.13,-2.58 -2.22,-4.68 -0.06,-2.09 0.7,-5.48 2.36,-10.16l5.24 -14.68 -5.45 0 4.2 -11.77 5.45 0 2.72 -7.65 17.78 -8.22zm-4.87 57.73m20.6 -57.73l14.83 0 -3.89 10.89 -14.83 0 3.89 -10.89zm-5.67 15.88l14.83 0 -14.93 41.85 -14.83 0 14.93 -41.85zm9.38 41.85m14.94 -41.85l13.79 0 -2.42 6.78c3.07,-2.73 5.87,-4.75 8.39,-5.97 2.6,-1.21 5.33,-1.77 8.38,-1.77 4.11,0 6.78,1.29 8.21,3.95 1.36,2.66 1.03,6.69 -0.95,12.26l-9.49 26.61 -14.91 0 8.22 -23.06c0.92,-2.59 1.14,-4.43 0.64,-5.56 -0.52,-1.06 -1.58,-1.62 -3.15,-1.62 -1.79,0 -3.55,0.73 -5.18,2.17 -1.58,1.54 -3.1,4.12 -4.49,7.98l-7.16 20.08 -14.84 0 14.94 -41.85zm33 41.85m43.64 -41.85l13.87 0 -14.09 39.51 -0.59 1.86c-0.92,2.58 -2.33,5.08 -4.23,7.5 -1.88,2.34 -3.92,4.27 -6.14,5.72 -2.26,1.53 -4.8,2.58 -7.72,3.23 -2.84,0.64 -5.93,0.96 -9.36,0.96 -7.75,0 -12.67,-1.29 -14.68,-3.79 -1.94,-2.49 -2.23,-5.88 -0.7,-10.16 0.17,-0.49 0.42,-1.2 0.81,-2.09l13.76 1.77c-0.14,1.45 0.03,2.42 0.65,2.98 0.75,0.8 2.03,1.21 3.66,1.21 2.1,0 3.96,-0.64 5.44,-1.86 1.48,-1.2 2.78,-3.39 3.87,-6.45l2.24 -6.28c-2.08,1.85 -4.05,3.22 -5.76,4.02 -2.8,1.37 -5.49,2.02 -8.17,2.02 -5.14,0 -8.46,-2.42 -9.91,-7.33 -1,-3.47 -0.48,-8.07 1.56,-13.79 2.33,-6.54 5.59,-11.46 9.72,-14.92 4.12,-3.38 8.52,-5.08 13.22,-5.08 2.99,0 5.32,0.56 6.88,1.62 1.53,1.12 2.66,2.99 3.48,5.48l2.19 -6.13zm-21.16 20.24c-1.1,3.07 -1.3,5.32 -0.62,6.78 0.67,1.45 1.97,2.17 3.92,2.17 1.86,0 3.68,-0.73 5.43,-2.26 1.82,-1.53 3.28,-3.79 4.38,-6.85 1.1,-3.06 1.26,-5.4 0.49,-7.01 -0.69,-1.62 -2.04,-2.42 -3.91,-2.42 -1.94,0 -3.68,0.72 -5.35,2.26 -1.64,1.45 -3.13,3.94 -4.33,7.33zm55 21.61m20.6 -57.73l30.95 0c5.14,0 8.6,1.37 10.38,4.12 1.78,2.73 1.89,6.21 0.45,10.24 -1.25,3.46 -3.24,6.37 -6.12,8.78 -1.84,1.62 -4.24,2.9 -7.13,3.87 3.54,0.96 5.67,2.73 6.66,5.15 0.93,2.42 0.74,5.48 -0.56,9.11 -1.07,2.98 -2.71,5.72 -4.81,8.06 -2.13,2.42 -4.58,4.28 -7.34,5.73 -1.63,0.8 -3.95,1.45 -6.93,1.85 -3.93,0.57 -6.47,0.81 -7.67,0.81l-28.49 0 20.6 -57.73zm8.54 22.66l7.23 0c2.53,0 4.5,-0.49 5.89,-1.45 1.31,-0.97 2.32,-2.34 2.98,-4.19 0.58,-1.62 0.55,-2.99 -0.11,-3.87 -0.7,-0.97 -2.24,-1.45 -4.77,-1.45l-7.32 0 -3.91 10.96zm-8.09 22.66l8.43 0c2.84,0 5.06,-0.57 6.62,-1.62 1.52,-1.13 2.64,-2.59 3.29,-4.43 0.6,-1.69 0.5,-3.06 -0.24,-4.12 -0.82,-1.05 -2.66,-1.52 -5.57,-1.52l-8.35 0 -4.17 11.69zm35.76 12.42m40.87 0l-13.87 0 2.42 -6.78c-3.02,2.82 -5.8,4.76 -8.32,5.97 -2.51,1.21 -5.33,1.77 -8.38,1.77 -4.11,0 -6.78,-1.29 -8.14,-3.95 -1.36,-2.66 -1.12,-6.68 0.87,-12.26l9.5 -26.61 14.91 0 -8.22 23.06c-0.92,2.59 -1.17,4.52 -0.64,5.57 0.49,1.12 1.55,1.69 3.19,1.69 1.72,0 3.4,-0.73 5.11,-2.17 1.67,-1.54 3.14,-4.19 4.49,-7.98l7.19 -20.17 14.84 0 -14.93 41.85zm6.41 0m4.14 -11.61l15.2 -1.45c-0.06,1.85 0.35,3.22 1.1,4.03 0.83,0.8 2.11,1.2 3.97,1.2 2.02,0 3.67,-0.49 5.11,-1.37 1.08,-0.72 1.82,-1.53 2.2,-2.58 0.4,-1.13 0.19,-2.02 -0.7,-2.66 -0.64,-0.49 -2.61,-1.05 -5.81,-1.69 -4.8,-0.97 -8.07,-1.87 -9.79,-2.67 -1.65,-0.8 -2.85,-2.26 -3.49,-4.19 -0.7,-2.02 -0.57,-4.28 0.33,-6.77 0.97,-2.73 2.59,-5.16 4.77,-7.09 2.21,-2.02 4.76,-3.55 7.72,-4.52 2.96,-0.96 6.56,-1.45 10.96,-1.45 4.55,0 7.83,0.4 9.73,1.13 1.95,0.8 3.34,1.93 4.25,3.55 0.92,1.62 1.33,3.79 1.32,6.52l-14.54 1.46c0.12,-1.37 -0.14,-2.33 -0.72,-2.99 -0.91,-0.8 -2.19,-1.2 -3.82,-1.2 -1.64,0 -2.95,0.32 -4,0.96 -0.97,0.64 -1.64,1.46 -1.95,2.34 -0.37,1.05 -0.11,1.77 0.59,2.33 0.79,0.49 2.78,0.97 5.84,1.37 4.7,0.64 8.07,1.46 10.13,2.59 2.01,1.05 3.25,2.58 3.8,4.59 0.62,2.02 0.43,4.19 -0.42,6.61 -0.87,2.42 -2.36,4.75 -4.52,7.01 -2.14,2.26 -4.97,4.12 -8.3,5.49 -3.39,1.36 -7.57,2.01 -12.56,2.01 -7.08,0 -11.68,-1.13 -13.96,-3.3 -2.21,-2.17 -3.05,-5.24 -2.44,-9.27zm44.54 11.61m20.6 -57.73l14.84 0 -3.89 10.89 -14.84 0 3.89 -10.89zm-5.67 15.88l14.84 0 -14.93 41.85 -14.84 0 14.93 -41.85zm9.39 41.85m14.93 -41.85l13.8 0 -2.42 6.78c3.06,-2.73 5.87,-4.75 8.38,-5.97 2.6,-1.21 5.33,-1.77 8.39,-1.77 4.1,0 6.77,1.29 8.2,3.95 1.36,2.66 1.05,6.69 -0.94,12.26l-9.49 26.61 -14.92 0 8.24 -23.06c0.92,-2.59 1.13,-4.43 0.64,-5.56 -0.53,-1.06 -1.59,-1.62 -3.16,-1.62 -1.78,0 -3.54,0.73 -5.17,2.17 -1.59,1.54 -3.11,4.12 -4.49,7.98l-7.17 20.08 -14.83 0 14.93 -41.85zm32.94 41.85m50.85 -16.93l-29.75 0c-0.61,2.58 -0.71,4.52 -0.1,5.72 0.75,1.86 2.3,2.75 4.61,2.75 1.49,0 3.05,-0.4 4.6,-1.2 0.99,-0.5 2.21,-1.37 3.53,-2.59l14.09 1.45c-3.73,4.19 -7.48,7.18 -11.27,9.03 -3.87,1.86 -8.73,2.75 -14.63,2.75 -5.14,0 -8.88,-0.8 -11.23,-2.33 -2.33,-1.62 -3.94,-4.03 -4.63,-7.5 -0.73,-3.39 -0.26,-7.42 1.38,-12.01 2.32,-6.54 6.17,-11.86 11.48,-15.88 5.32,-4.03 11.4,-6.05 18.19,-6.05 5.59,0 9.6,0.89 12.14,2.73 2.58,1.77 4.09,4.43 4.49,7.91 0.51,3.39 -0.29,7.9 -2.24,13.38l-0.67 1.86zm-12.32 -7.65c0.82,-3.15 0.86,-5.32 0.07,-6.69 -0.78,-1.37 -2.2,-2.02 -4.2,-2.02 -2.39,0 -4.62,1.05 -6.76,3.06 -1.33,1.2 -2.62,3.15 -3.73,5.65l14.61 0zm10.46 24.59m4.14 -11.61l15.2 -1.45c-0.06,1.85 0.35,3.22 1.1,4.03 0.83,0.8 2.11,1.2 3.97,1.2 2.02,0 3.67,-0.49 5.11,-1.37 1.08,-0.72 1.82,-1.53 2.2,-2.58 0.4,-1.13 0.19,-2.02 -0.7,-2.66 -0.64,-0.49 -2.61,-1.05 -5.81,-1.69 -4.8,-0.97 -8.07,-1.87 -9.79,-2.67 -1.65,-0.8 -2.85,-2.26 -3.49,-4.19 -0.7,-2.02 -0.57,-4.28 0.32,-6.77 0.98,-2.73 2.6,-5.16 4.77,-7.09 2.22,-2.02 4.77,-3.55 7.73,-4.52 2.96,-0.96 6.56,-1.45 10.96,-1.45 4.55,0 7.83,0.4 9.73,1.13 1.95,0.8 3.34,1.93 4.25,3.55 0.91,1.62 1.33,3.79 1.32,6.52l-14.54 1.46c0.12,-1.37 -0.14,-2.33 -0.72,-2.99 -0.91,-0.8 -2.19,-1.2 -3.82,-1.2 -1.64,0 -2.95,0.32 -4,0.96 -0.97,0.64 -1.64,1.46 -1.95,2.34 -0.37,1.05 -0.11,1.77 0.58,2.33 0.8,0.49 2.79,0.97 5.85,1.37 4.7,0.64 8.06,1.46 10.13,2.59 2.01,1.05 3.25,2.58 3.8,4.59 0.61,2.02 0.43,4.19 -0.42,6.61 -0.87,2.42 -2.36,4.75 -4.52,7.01 -2.15,2.26 -4.97,4.12 -8.3,5.49 -3.39,1.36 -7.57,2.01 -12.57,2.01 -7.08,0 -11.67,-1.13 -13.95,-3.3 -2.21,-2.17 -3.05,-5.24 -2.44,-9.27zm41.42 11.61m4.14 -11.61l15.2 -1.45c-0.06,1.85 0.34,3.22 1.1,4.03 0.83,0.8 2.11,1.2 3.97,1.2 2.02,0 3.67,-0.49 5.11,-1.37 1.08,-0.72 1.82,-1.53 2.19,-2.58 0.4,-1.13 0.2,-2.02 -0.69,-2.66 -0.65,-0.49 -2.61,-1.05 -5.81,-1.69 -4.8,-0.97 -8.07,-1.87 -9.79,-2.67 -1.65,-0.8 -2.85,-2.26 -3.51,-4.19 -0.7,-2.02 -0.56,-4.28 0.33,-6.77 0.98,-2.73 2.59,-5.16 4.77,-7.09 2.22,-2.02 4.77,-3.55 7.73,-4.52 2.96,-0.96 6.56,-1.45 10.95,-1.45 4.56,0 7.83,0.4 9.74,1.13 1.95,0.8 3.34,1.93 4.25,3.55 0.92,1.62 1.33,3.79 1.32,6.52l-14.54 1.46c0.12,-1.37 -0.14,-2.33 -0.73,-2.99 -0.9,-0.8 -2.17,-1.2 -3.81,-1.2 -1.65,0 -2.95,0.32 -4,0.96 -0.98,0.64 -1.64,1.46 -1.95,2.34 -0.38,1.05 -0.11,1.77 0.58,2.33 0.8,0.49 2.79,0.97 5.85,1.37 4.7,0.64 8.06,1.46 10.11,2.59 2.02,1.05 3.26,2.58 3.81,4.59 0.61,2.02 0.43,4.19 -0.43,6.61 -0.86,2.42 -2.36,4.75 -4.51,7.01 -2.14,2.26 -4.97,4.12 -8.3,5.49 -3.4,1.36 -7.58,2.01 -12.56,2.01 -7.09,0 -11.69,-1.13 -13.96,-3.3 -2.21,-2.17 -3.05,-5.24 -2.44,-9.27z"/>
   <path class="fil2" d="M869.13 589.19l465.2 0 -5.94 15.59 -465.2 0 5.94 -15.59zm-8.18 21.47l465.2 0 -5.94 15.59 -465.2 0 5.94 -15.59z"/>
  </g>
 </g>
</svg>
