<?xml version="1.0" encoding="UTF-8"?>
<!DOCTYPE svg PUBLIC "-//W3C//DTD SVG 1.1//EN" "http://www.w3.org/Graphics/SVG/1.1/DTD/svg11.dtd">
<!-- Creator: CorelDRAW -->
<svg xmlns="http://www.w3.org/2000/svg" xml:space="preserve" width="7.62mm" height="7.316mm" version="1.1" style="shape-rendering:geometricPrecision; text-rendering:geometricPrecision; image-rendering:optimizeQuality; fill-rule:evenodd; clip-rule:evenodd"
viewBox="0 0 77.95 74.84"
 xmlns:xlink="http://www.w3.org/1999/xlink"
 xmlns:xodm="http://www.corel.com/coreldraw/odm/2003">
 <defs>
  <style type="text/css">
   <![CDATA[
    .fil0 {fill:#1D1819}
   ]]>
  </style>
 </defs>
 <g id="Layer_x0020_1">
  <metadata id="CorelCorpID_0Corel-Layer"/>
  <path class="fil0" d="M35.17 58.76c0.54,0 0.58,0.11 1.18,0.11l6.22 0c0.02,-0.76 5.34,-14.48 5.97,-16.23l6.04 -16.26c0.37,0.59 0.22,4.94 0.21,5.9 -0,0.84 0.11,1.31 0.11,2.03 0,1.36 -0,2.72 -0,4.08 0,1.48 0.11,2.58 0.11,4.07 0,5.5 0.21,10.79 0.21,16.3l6.86 0c0.44,0 0.67,-1.23 0.83,-1.64 0.25,-0.63 0.46,-1.26 0.69,-1.89 0.22,-0.61 0.44,-1.25 0.67,-1.9 0.25,-0.7 0.44,-1.21 0.67,-1.9 0.8,-2.46 1.85,-5.06 2.68,-7.5 0.44,-1.29 0.91,-2.5 1.31,-3.73l1.36 -3.78c0.25,-0.65 0.45,-1.31 0.67,-1.9l2.05 -5.67c2.2,9.43 0.92,19.07 -4.25,26.96 -1.52,2.31 -2.86,3.92 -4.68,5.93l-2.54 2.28c-6.19,4.8 -11.11,6.9 -19.32,7.81 -0.39,0.04 -0.78,0.01 -1.17,0.01 -0.55,0.01 -0.59,0.09 -1.07,0.11 -0.87,0.05 -1.42,-0.12 -2.25,-0.11 -1.44,0.02 -3.02,-0.28 -4.34,-0.49 -2.57,-0.42 -5.18,-1.26 -7.28,-2.16 -1.62,-0.7 -3.21,-1.47 -4.67,-2.41 -2.01,-1.29 -2.33,-1.62 -4.1,-2.98 -0.78,-0.6 -1.75,-1.59 -2.44,-2.28 -2.39,-2.39 -4.44,-5.26 -6,-8.27 -0.32,-0.61 -0.2,-0.48 0.2,-1.67 0.19,-0.57 0.38,-1.14 0.59,-1.77l7.22 -21.19c0,1.27 0.11,2.29 0.11,3.65l0 11.47c0,2.63 0.11,4.96 0.11,7.51 0,2.54 0,5.08 0,7.61l7.94 0c0.04,-0.48 9.07,-24.36 9.93,-26.64 0.15,-0.41 0.13,-0.54 0.37,-0.81l-0.11 23.91c0,1.28 -0.11,2.15 -0.11,3.43zm-11.9 -11.37c0,-1.47 -0.11,-2.57 -0.11,-3.97 0,-1.39 -0.01,-2.79 0,-4.18 0.01,-0.8 -0.11,-1.13 -0.11,-1.93 0.01,-1.83 0.03,-4.48 -0.1,-6.12 -0.1,-1.19 -0.01,-2.83 -0.01,-4.07 0,-1.5 -0.11,-2.63 -0.11,-4.07 0,-2.88 -0.11,-5.43 -0.11,-8.26l-7.08 0c-0.07,0.29 -0.21,0.59 -0.31,0.87l-0.92 2.62c-1.24,3.21 -2.65,7.38 -3.77,10.6 -0.83,2.38 -1.67,4.67 -2.52,7.02 -0.35,0.96 -2.41,6.6 -2.45,7.09 -0.3,-0.22 -0.21,-0.28 -0.28,-0.79 -0.05,-0.37 -0.11,-0.79 -0.13,-1.05 -0.17,-1.74 -0.32,-4.91 -0.06,-6.68 0.48,-3.31 0.38,-4.26 1.59,-7.85 1.13,-3.36 2.72,-6.52 4.74,-9.31 3.29,-4.55 7.61,-8.29 12.66,-10.82 8.5,-4.26 19.03,-4.83 28.07,-1.19 2.58,1.04 4.35,1.98 6.6,3.48 0.92,0.61 2.71,1.96 3.51,2.71l1.98 1.88c0.27,0.26 0.32,0.32 0.55,0.63l1.79 2.07c0.39,0.47 0.67,0.93 1.04,1.43 0.36,0.49 0.67,0.94 1,1.46 1.03,1.65 0.79,0.97 -0.06,3.52l-7 20.67c-0.12,0.37 -0.2,0.59 -0.32,0.96l-0.36 0.92c0,-9.99 -0.21,-20.36 -0.21,-30.34l-7.61 0c-0.4,0 -0.18,0.03 -0.31,0.23l-10.09 26.91c-0.1,0.21 -0.03,0.09 -0.11,0.21 0,-4.54 0,-9.08 0,-13.62 0,-4.65 0.11,-8.96 0.11,-13.62 -0.56,0 -1,-0.11 -1.72,-0.11l-5.58 0 -5.29 14.23c-0.28,0.72 -0.54,1.38 -0.79,2.11 -1.28,3.8 -3.19,8.35 -4.58,12.25l-1.57 4.11zm-21.12 -10.4c0,4.26 0.4,6.95 1.49,10.85 0.16,0.56 -0.02,0.77 -0.19,1.28l-3.45 9.74 6.65 0 0.77 -2.25 1.85 2.74c1.79,2.6 4.41,5.21 6.84,7.2 1.41,1.15 3.93,2.92 5.59,3.74 0.73,0.37 1.34,0.67 2.07,1.04 4.6,2.32 10.62,3.5 16.23,3.5 6.26,0 12.53,-1.78 17.94,-4.79 0.5,-0.28 0.9,-0.54 1.41,-0.84 3.74,-2.24 6.94,-5.29 9.68,-8.66 0.38,-0.46 0.67,-0.89 1,-1.36 1.49,-2.11 2.28,-3.44 3.43,-5.79 2.03,-4.12 3.54,-10.25 3.54,-14.8 0,-5.7 -0.37,-8.75 -2.16,-13.82 -0.27,-0.77 -0.08,-1.02 0.46,-2.46l2.66 -7.63 -6.65 0c-0.05,0.58 -0.48,1.14 -0.54,1.82 -0.31,-0.21 -0.44,-0.44 -0.64,-0.75l-5.44 -6.14 -1.56 -1.33c-6.09,-4.93 -14.47,-8.29 -22.38,-8.29l-2.15 0c-6.75,0 -15.2,2.77 -20.62,6.83 -0.99,0.74 -2.91,2.17 -3.8,3.06 -0.42,0.42 -0.76,0.76 -1.18,1.18 -0.77,0.77 -1.48,1.49 -2.16,2.35 -0.34,0.43 -0.65,0.81 -1,1.25 -0.88,1.06 -2.11,3.08 -2.78,4.19l-0.8 1.45c-2.27,4.21 -4.11,10.74 -4.11,16.69z"/>
 </g>
</svg>
